# xmcd CD database file
# 
# Track frame offsets:
# 	225
# 	15570
# 	28598
# 	42260
# 	57940
# 	76480
# 	87675
# 	101073
# 	113690
# 	125463
# 
# Disc length: 1874 seconds
# 
# Submitted via: Nero 6, 3, 1, 6
# 
# Revision: 0
# Processed by: cddbd v1.5.1PL0 Copyright (c) Steve Scherf et al.
#
DISCID=7d074f0a
DTITLE=Daniela Muehleis and Band - Animals
DYEAR=1900
DGENRE=
TTITLE0=Animals
TTITLE1=Now and then
TTITLE2=Lord, Please Lord
TTITLE3=Take my Heart
TTITLE4=Love is All
TTITLE5=Original Owner
TTITLE6=Times Good and Bad
TTITLE7=All Alone
TTITLE8=Whiskey Promises
TTITLE9=Love me like a woman
EXTD=
EXTT0=
EXTT1=
EXTT2=
EXTT3=
EXTT4=
EXTT5=
EXTT6=
EXTT7=
EXTT8=
EXTT9=
PLAYORDER=
